<svg width="75" height="76" xmlns="http://www.w3.org/2000/svg" xmlns:xlink="http://www.w3.org/1999/xlink" xml:space="preserve" overflow="hidden"><g transform="translate(-1187 -159)"><path d="M28.0711 34.9438 26.9664 36.0484 34.9859 44.0688 48.8148 30.2398 47.7102 29.1352 34.9859 41.8594 28.0711 34.9438Z" stroke="#0078D4" stroke-width="1.30209" fill="#0078D4" transform="matrix(1 0 0 1.01333 1187 159)"/><path d="M61.3531 17.1094C53.0583 16.4388 45.3284 12.6407 39.7289 6.48438 38.6721 5.25856 36.8217 5.12153 35.5959 6.1783 35.4865 6.27264 35.3841 6.37495 35.2898 6.48438 29.691 12.6404 21.9596 16.4354 13.6648 17.0992 12.1217 17.2481 10.9481 18.5513 10.9609 20.1016L10.9609 27.6664C10.9609 44.1219 21.3945 59.1734 35.8758 68.4867 36.8698 69.1295 38.1482 69.1295 39.1422 68.4867 53.6242 59.1734 64.057 44.1297 64.057 27.6742L64.057 20.1109C64.0721 18.56 62.8972 17.2558 61.3531 17.1094ZM62.4945 27.6766C62.4945 42.6648 53.4492 57.4305 38.2977 67.1742 37.8184 67.4863 37.2003 67.4863 36.7211 67.1742 21.5695 57.4297 12.5234 42.6609 12.5234 27.668L12.5234 20.1031C12.5095 19.3665 13.0585 18.7403 13.7906 18.6578 22.4827 17.9696 30.5853 13.9927 36.4469 7.5375 36.7122 7.22614 37.0973 7.04211 37.5062 7.03125 37.9174 7.04207 38.3049 7.2259 38.5734 7.5375 44.4362 13.9921 52.5376 17.9713 61.2297 18.6656 61.9621 18.7478 62.5116 19.3741 62.4977 20.1109Z" stroke="#0078D4" stroke-width="1.30209" fill="#0078D4" transform="matrix(1 0 0 1.01333 1187 159)"/><path d="M17.2109 22.9688 17.2109 27.6703C17.2109 40.4867 24.7602 53.2172 37.5094 62.0664 50.2578 53.2125 57.807 40.4867 57.807 27.6758L57.807 22.9688C50.2159 21.7611 43.1527 18.332 37.5086 13.1141 31.8659 18.3337 24.8024 21.763 17.2109 22.9688ZM56.2445 27.6781C56.2445 39.5766 49.2617 51.6461 37.5094 60.1508 25.757 51.6406 18.7734 39.5719 18.7734 27.668L18.7734 24.2773C25.704 22.9448 32.1637 19.8175 37.5078 15.2078 42.853 19.818 49.3133 22.9467 56.2445 24.282Z" stroke="#0078D4" stroke-width="1.30209" fill="#0078D4" transform="matrix(1 0 0 1.01333 1187 159)"/></g></svg>