<svg width="95" height="94" xmlns="http://www.w3.org/2000/svg" xmlns:xlink="http://www.w3.org/1999/xlink" xml:space="preserve" overflow="hidden"><g transform="translate(-746 -120)"><path d="M71.4792 45.0417 60.8885 45.0417 53.9364 22.0361 54.9087 15.228 54.4417 14.8833C53.0784 13.9732 51.5471 13.3443 49.9375 13.0337L49.9375 6.75625C49.9375 5.18799 48.6661 3.91667 47.0979 3.91667L46.9021 3.91667C45.3339 3.91667 44.0625 5.18799 44.0625 6.75625L44.0625 13.0337C42.453 13.3446 40.9218 13.9734 39.5583 14.8833L39.0903 15.2309 40.0626 22.0391 33.1115 45.0417 22.5208 45.0417C21.98 45.0417 21.5417 45.48 21.5417 46.0208 21.5417 46.5616 21.98 47 22.5208 47L32.5191 47 25.5004 70.216 25.4583 82.3479C25.4642 83.5717 26.2533 84.654 27.4167 85.0338L27.4167 89.1042C27.4167 89.645 27.855 90.0833 28.3958 90.0833 28.9366 90.0833 29.375 89.645 29.375 89.1042L29.375 85.0338C30.5383 84.6541 31.3275 83.5717 31.3333 82.3479L31.3333 70.6449 38.4813 47 46.0208 47 46.0208 51.8958C46.0208 52.4366 46.4592 52.875 47 52.875 47.5408 52.875 47.9792 52.4366 47.9792 51.8958L47.9792 47 55.5188 47 62.6667 70.6449 62.6667 82.3479C62.6725 83.5717 63.4617 84.654 64.625 85.0338L64.625 89.1042C64.625 89.645 65.0634 90.0833 65.6042 90.0833 66.145 90.0833 66.5833 89.645 66.5833 89.1042L66.5833 85.0338C67.7467 84.6541 68.5358 83.5717 68.5417 82.3479L68.5417 70.3551 61.4809 47 71.4792 47C72.02 47 72.4583 46.5616 72.4583 46.0208 72.4583 45.48 72.02 45.0417 71.4792 45.0417ZM46.0208 12.7292 46.0208 6.75625C46.0208 6.26955 46.4153 5.875 46.9021 5.875L47.0979 5.875C47.5847 5.875 47.9792 6.26955 47.9792 6.75625L47.9792 12.7292ZM47 14.6875C49.0248 14.6781 51.0188 15.1834 52.7947 16.1562L51.1664 27.5557C51.0972 28.0376 50.6847 28.3954 50.198 28.3958L43.802 28.3958C43.315 28.3953 42.9023 28.037 42.8336 27.5547L41.2053 16.1562C42.9809 15.1829 44.9751 14.6774 47 14.6875ZM29.4171 70.216 29.375 82.3479C29.375 82.8347 28.9805 83.2292 28.4938 83.2292L28.2979 83.2292C27.8112 83.2292 27.4167 82.8347 27.4167 82.3479L27.4167 70.6449 40.7235 26.6333 40.8949 27.8348C40.9878 28.4606 41.2821 29.039 41.7331 29.4827ZM47.9792 45.0417 47.9792 40.1458C47.9792 39.605 47.5408 39.1667 47 39.1667 46.4592 39.1667 46.0208 39.605 46.0208 40.1458L46.0208 45.0417 39.0736 45.0417 43.522 30.3277C43.6148 30.3414 43.7083 30.3503 43.802 30.3542L50.198 30.3542C50.2917 30.3503 50.3852 30.3414 50.478 30.3277L54.9313 45.0417ZM66.5833 82.3479C66.5833 82.8347 66.1888 83.2292 65.7021 83.2292L65.5063 83.2292C65.0195 83.2292 64.625 82.8347 64.625 82.3479L64.625 70.3551 52.2669 29.4798C52.7179 29.0361 53.0122 28.4576 53.1051 27.8318L53.2765 26.6333 66.5833 70.6449Z" stroke="#FFFFFF" stroke-width="0.666667" fill="#FFFFFF" transform="matrix(1.01064 0 0 1 746 120)"/></g></svg>