<svg width="95" height="94" xmlns="http://www.w3.org/2000/svg" xmlns:xlink="http://www.w3.org/1999/xlink" xml:space="preserve" overflow="hidden"><g transform="translate(-530 -867)"><path d="M14.6875 26.4375C16.468 26.4308 18.02 25.224 18.4651 23.5L23.5 23.5C25.1224 23.5 26.4375 24.8151 26.4375 26.4375L26.4375 37.6411C26.8723 37.508 27.3129 37.3924 27.7613 37.3014 27.9414 36.7385 28.1532 36.1864 28.3958 35.6475L28.3958 26.4375C28.3926 23.7349 26.2026 21.5449 23.5 21.5417L18.4641 21.5417C17.9195 19.4521 15.7843 18.1997 13.6947 18.7443 11.6052 19.2888 10.3527 21.4242 10.8972 23.5137 11.3467 25.2382 12.9054 26.4406 14.6875 26.4375Z" stroke="#0078D4" stroke-width="0.245752" fill="#0078D4" transform="matrix(1.01064 0 0 1 530 867)"/><path d="M17.9863 56.7917 10.7708 56.7917C9.1485 56.7917 7.83333 55.4765 7.83333 53.8542L7.83333 47.8401C9.92777 47.2993 11.1873 45.1631 10.6465 43.0686 10.1057 40.9742 7.96943 39.7148 5.875 40.2555 3.78057 40.7963 2.52109 42.9325 3.06187 45.027 3.41808 46.4066 4.4954 47.4839 5.875 47.8401L5.875 53.8542C5.87824 56.5568 8.06828 58.7468 10.7708 58.75L19.1535 58.75C18.7109 58.1307 18.3205 57.4756 17.9863 56.7917Z" stroke="#0078D4" stroke-width="0.245752" fill="#0078D4" transform="matrix(1.01064 0 0 1 530 867)"/><path d="M44.0625 14.5485 44.0625 26.507C44.7203 26.5558 45.3743 26.6457 46.0208 26.7763L46.0208 14.5485C48.1153 14.0077 49.3748 11.8714 48.834 9.777 48.2932 7.68257 46.1569 6.42309 44.0625 6.96386 41.9681 7.50465 40.7086 9.6409 41.2494 11.7353 41.6056 13.115 42.6829 14.1922 44.0625 14.5485Z" stroke="#0078D4" stroke-width="0.245752" fill="#0078D4" transform="matrix(1.01064 0 0 1 530 867)"/><path d="M62.6667 32.3125C62.6667 30.6901 63.9818 29.375 65.6042 29.375L71.4792 29.375C74.1818 29.3718 76.3718 27.1818 76.375 24.4792L76.375 22.3818C78.4694 21.841 79.7289 19.7048 79.1881 17.6103 78.6474 15.5159 76.5111 14.2564 74.4167 14.7972 72.3222 15.338 71.0627 17.4742 71.6035 19.5686 71.9597 20.9483 73.037 22.0256 74.4167 22.3818L74.4167 24.4792C74.4167 26.1015 73.1015 27.4167 71.4792 27.4167L65.6042 27.4167C62.9016 27.4199 60.7116 29.6099 60.7083 32.3125L60.7083 32.7805C61.3863 33.0624 62.0411 33.397 62.6667 33.7812Z" stroke="#0078D4" stroke-width="0.245752" fill="#0078D4" transform="matrix(1.01064 0 0 1 530 867)"/><path d="M50.9167 78.4724 50.9167 64.625 48.9583 64.625 48.9583 78.4724C46.8639 79.0132 45.6044 81.1494 46.1452 83.2439 46.686 85.3383 48.8222 86.5978 50.9167 86.057 53.0111 85.5162 54.2706 83.38 53.7298 81.2855 53.3736 79.9059 52.2963 78.8286 50.9167 78.4724Z" stroke="#0078D4" stroke-width="0.245752" fill="#0078D4" transform="matrix(1.01064 0 0 1 530 867)"/><path d="M34.2708 65.6042C34.2708 67.2265 32.9557 68.5417 31.3333 68.5417L25.4583 68.5417C22.7557 68.5449 20.5657 70.7349 20.5625 73.4375L20.5625 75.5349C18.4681 76.0757 17.2086 78.2119 17.7494 80.3064 18.2901 82.4008 20.4264 83.6603 22.5208 83.1195 24.6153 82.5787 25.8748 80.4425 25.334 78.348 24.9778 76.9684 23.9005 75.8911 22.5208 75.5349L22.5208 73.4375C22.5208 71.8151 23.836 70.5 25.4583 70.5L31.3333 70.5C34.0359 70.4968 36.2259 68.3068 36.2292 65.6042L36.2292 64.625 34.2708 64.625Z" stroke="#0078D4" stroke-width="0.245752" fill="#0078D4" transform="matrix(1.01064 0 0 1 530 867)"/><path d="M87.1458 43.0833C85.3653 43.09 83.8133 44.2968 83.3682 46.0208L75.0531 46.0208C75.4662 46.6396 75.8212 47.2951 76.1136 47.9792L83.3672 47.9792C83.9118 50.0687 86.0471 51.3212 88.1367 50.7765 90.2262 50.232 91.4787 48.0967 90.9341 46.0071 90.4849 44.2833 88.9272 43.0812 87.1458 43.0833Z" stroke="#0078D4" stroke-width="0.245752" fill="#0078D4" transform="matrix(1.01064 0 0 1 530 867)"/><path d="M78.3333 69.5208C76.5528 69.5275 75.0008 70.7343 74.5557 72.4583L69.5208 72.4583C67.8985 72.4583 66.5833 71.1432 66.5833 69.5208L66.5833 64.5036C66.0449 64.5803 65.5018 64.6209 64.9579 64.625L64.625 64.625 64.625 69.5208C64.6282 72.2234 66.8182 74.4134 69.5208 74.4167L74.5557 74.4167C75.1003 76.5062 77.2356 77.7587 79.3251 77.2141 81.4147 76.6695 82.6671 74.5342 82.1226 72.4446 81.6733 70.7205 80.115 69.5182 78.3333 69.5208Z" stroke="#0078D4" stroke-width="0.245752" fill="#0078D4" transform="matrix(1.01064 0 0 1 530 867)"/><path d="M21.7453 44.2985C19.2923 47.5104 18.8529 51.8286 20.6085 55.4688 22.3665 59.1187 25.9967 61.499 30.0448 61.6562L30.1074 61.6562 32.9871 61.6855 64.9569 61.6855C69.9648 61.738 74.067 57.7208 74.1194 52.7129 74.1679 48.0914 70.7327 44.173 66.1447 43.616 65.6372 40.7873 64.0277 38.2756 61.6699 36.6326 59.817 35.3367 57.6095 34.6439 55.3484 34.6488 54.6476 34.6481 53.9483 34.7136 53.2598 34.8446 50.8657 31.4032 46.9329 29.3584 42.7406 29.375 41.7406 29.3754 40.744 29.4917 39.7708 29.7216 34.7814 30.8732 30.9779 34.9186 30.1358 39.9696 26.8328 40.087 23.7553 41.6748 21.7453 44.2985ZM30.5128 41.9211C30.9833 41.9212 31.4531 41.9579 31.9179 42.0307 31.9226 42.0318 31.9274 42.0289 31.9285 42.0241 31.9286 42.0234 31.9287 42.0226 31.9287 42.0219 31.9287 41.969 31.9287 41.784 31.9287 41.7145 32.0846 36.862 35.487 32.7222 40.2173 31.629 45.0348 30.4843 50.0175 32.7383 52.3384 37.1124 52.3419 37.115 52.3466 37.115 52.3502 37.1124 55.1046 36.1548 58.1508 36.5734 60.5448 38.2384 62.8788 39.8569 64.2955 42.4959 64.3548 45.3354 64.3548 45.3677 64.3548 45.4842 64.3548 45.5195 64.3548 45.5254 64.3548 45.5283 64.3655 45.5273 64.5605 45.5045 64.7568 45.4953 64.953 45.4999 68.882 45.4538 72.1046 48.6015 72.1506 52.5306 72.1967 56.4596 69.049 59.6821 65.12 59.7282 65.0644 59.7289 65.0086 59.7289 64.953 59.7282L33.0067 59.7282 30.128 59.6988C26.804 59.5677 23.8227 57.6153 22.374 54.6209 20.9429 51.6417 21.3023 48.1119 23.3042 45.4823 25.0186 43.2341 27.6854 41.9166 30.5128 41.9211Z" stroke="#0078D4" stroke-width="0.245752" fill="#0078D4" transform="matrix(1.01064 0 0 1 530 867)"/></g></svg>