<svg width="76" height="76" xmlns="http://www.w3.org/2000/svg" xmlns:xlink="http://www.w3.org/1999/xlink" xml:space="preserve" overflow="hidden"><g transform="translate(-325 -159)"><path d="M379.645 193.845 379.645 184.358C379.645 175.165 372.192 167.712 362.999 167.712 353.806 167.712 346.354 175.165 346.354 184.358L346.354 193.844 340.831 194.24 340.831 224.331 362.998 225.914 385.164 224.331 385.164 194.239ZM347.937 184.358C347.937 176.039 354.681 169.296 362.999 169.296 371.318 169.296 378.061 176.039 378.061 184.358L378.061 193.739 375.667 193.579 375.667 184.338C375.667 177.342 369.996 171.671 363 171.671 356.004 171.671 350.333 177.342 350.333 184.338L350.333 193.579 347.939 193.738ZM374.083 193.468 363 192.655 351.917 193.468 351.917 184.338C351.917 178.217 356.879 173.255 363 173.255 369.121 173.255 374.083 178.217 374.083 184.338ZM383.583 222.857 363 224.328 342.417 222.857 342.417 195.714 346.481 195.423 351.241 195.106 363 194.243 374.77 195.106 379.513 195.423 383.583 195.714Z" stroke="#0078D4" stroke-width="1.31945" fill="#0078D4"/><path d="M363 202.95C359.926 202.963 357.445 205.465 357.457 208.538 357.466 210.675 358.697 212.617 360.625 213.538L360.625 217.996 365.375 217.996 365.375 213.519C367.289 212.57 368.511 210.63 368.542 208.493 368.539 205.434 366.06 202.954 363 202.95ZM364.294 212.27 363.792 212.467 363.792 216.412 362.208 216.412 362.208 212.444 361.676 212.259C359.604 211.537 358.511 209.271 359.233 207.199 359.956 205.127 362.222 204.033 364.294 204.756 365.884 205.311 366.952 206.809 366.958 208.493 366.924 210.178 365.869 211.672 364.294 212.27Z" stroke="#0078D4" stroke-width="1.31945" fill="#0078D4"/></g></svg>