<svg width="96" height="96" xmlns="http://www.w3.org/2000/svg" xmlns:xlink="http://www.w3.org/1999/xlink" xml:space="preserve" overflow="hidden"><g transform="translate(-1020 -1128)"><path d="M1067.1 1166.8C1064.3 1166.8 1062.1 1169 1062.1 1171.8 1062.1 1174.6 1064.3 1176.8 1067.1 1176.8 1069.9 1176.8 1072.1 1174.6 1072.1 1171.8 1072.1 1171.8 1072.1 1171.8 1072.1 1171.8 1072.1 1169 1069.9 1166.8 1067.1 1166.8ZM1067.1 1174.8C1065.4 1174.8 1064.1 1173.5 1064.1 1171.8 1064.1 1170.1 1065.4 1168.8 1067.1 1168.8 1068.8 1168.8 1070.1 1170.1 1070.1 1171.8 1070.1 1173.5 1068.8 1174.8 1067.1 1174.8 1067.1 1174.8 1067.1 1174.8 1067.1 1174.8L1067.1 1174.8Z" stroke="#0078D4" stroke-width="1.33333" fill="#0078D4"/><path d="M1076.4 1167.1 1077.3 1164.4 1074.5 1161.6 1071.8 1162.5C1071.3 1162.3 1070.8 1162.1 1070.3 1161.9L1069 1159.4 1065.1 1159.4 1063.8 1161.9C1063.3 1162.1 1062.8 1162.3 1062.3 1162.5L1059.6 1161.6 1056.8 1164.4 1057.7 1167.1C1057.4 1167.6 1057.2 1168.1 1057.1 1168.6L1054.6 1169.9 1054.6 1173.8 1057.1 1175.1C1057.3 1175.6 1057.5 1176.1 1057.7 1176.6L1056.8 1179.3 1059.7 1182.1 1062.4 1181.2C1062.9 1181.4 1063.4 1181.6 1063.9 1181.8L1065.2 1184.3 1069.1 1184.3 1070.4 1181.8C1070.9 1181.6 1071.4 1181.4 1071.8 1181.2L1074.5 1182.1 1077.3 1179.3 1076.4 1176.6C1076.6 1176.1 1076.9 1175.6 1077 1175.1L1079.5 1173.8 1079.5 1169.9 1077 1168.6C1076.9 1168.1 1076.7 1167.6 1076.4 1167.1ZM1077.5 1172.5 1075.3 1173.6 1075.2 1174C1075 1174.7 1074.7 1175.3 1074.4 1175.9L1074.2 1176.3 1075 1178.7 1074 1179.7 1071.7 1178.9 1071.3 1179.1C1070.7 1179.4 1070.1 1179.7 1069.5 1179.8L1069 1180 1067.9 1182.2 1066.4 1182.2 1065.3 1180 1064.9 1179.9C1064.3 1179.7 1063.6 1179.5 1063.1 1179.1L1062.7 1178.9 1060.3 1179.7 1059.2 1178.6 1060 1176.3 1059.8 1175.9C1059.5 1175.3 1059.2 1174.7 1059 1174.1L1058.9 1173.7 1056.7 1172.6 1056.7 1171.2 1058.9 1170.1 1059 1169.7C1059.2 1169.1 1059.4 1168.4 1059.8 1167.9L1060 1167.5 1059.2 1165 1060.2 1163.9 1062.6 1164.7 1063 1164.5C1063.6 1164.2 1064.2 1163.9 1064.9 1163.7L1065.3 1163.6 1066.4 1161.4 1067.8 1161.4 1068.9 1163.6 1069.3 1163.7C1069.9 1163.9 1070.6 1164.1 1071.1 1164.5L1071.5 1164.7 1073.9 1163.9 1074.9 1164.9 1074.1 1167.3 1074.3 1167.7C1074.6 1168.3 1074.9 1168.9 1075.1 1169.5L1075.2 1169.9 1077.4 1171 1077.5 1172.5Z" stroke="#0078D4" stroke-width="1.33333" fill="#0078D4"/><path d="M1092.1 1172.5 1092.1 1171.6C1092.1 1157.8 1080.9 1146.6 1067.1 1146.6 1053.3 1146.6 1042.1 1157.8 1042.1 1171.6L1042.1 1172.5C1042.2 1175.5 1042.8 1178.4 1043.8 1181.2 1044.8 1183.8 1046.3 1186.2 1048.1 1188.3 1050.4 1190.8 1052.9 1195.6 1054 1197.8 1054.3 1198.4 1055 1198.9 1055.7 1198.9L1078.4 1198.9C1079.1 1198.9 1079.8 1198.5 1080.1 1197.8 1081.2 1195.6 1083.7 1190.8 1085.9 1188.3 1087.8 1186.2 1089.2 1183.8 1090.2 1181.2 1091.4 1178.4 1092 1175.4 1092.1 1172.5ZM1090.1 1172.5C1090 1175.2 1089.5 1177.9 1088.5 1180.5 1087.6 1182.9 1086.2 1185.1 1084.5 1187 1082.1 1189.6 1079.6 1194.3 1078.4 1196.9L1055.8 1196.9C1054.5 1194.3 1052 1189.6 1049.7 1187 1048 1185.1 1046.7 1182.9 1045.7 1180.5 1044.7 1178 1044.2 1175.3 1044.1 1172.5L1044.1 1171.7C1044.1 1159 1054.4 1148.7 1067.1 1148.7 1079.8 1148.7 1090.1 1159 1090.1 1171.7L1090.1 1171.7 1090.1 1172.5Z" stroke="#0078D4" stroke-width="1.33333" fill="#0078D4"/><path d="M1078.2 1204.9 1056.2 1204.9C1055.6 1204.9 1055.2 1205.3 1055.2 1205.9 1055.2 1206.5 1055.6 1206.9 1056.2 1206.9L1078.2 1206.9C1078.8 1206.9 1079.2 1206.5 1079.2 1205.9 1079.2 1205.3 1078.8 1204.9 1078.2 1204.9Z" stroke="#0078D4" stroke-width="1.33333" fill="#0078D4"/><path d="M1067.4 1143C1068 1143 1068.4 1142.6 1068.4 1142L1068.4 1133C1068.4 1132.4 1068 1132 1067.4 1132 1066.8 1132 1066.4 1132.4 1066.4 1133L1066.4 1142C1066.4 1142.6 1066.8 1143 1067.4 1143Z" stroke="#0078D4" stroke-width="1.33333" fill="#0078D4"/><path d="M1037.1 1171 1028.1 1171C1027.5 1171 1027.1 1171.4 1027.1 1172 1027.1 1172.6 1027.5 1173 1028.1 1173L1037.1 1173C1037.7 1173 1038.1 1172.6 1038.1 1172 1038.1 1171.4 1037.6 1171 1037.1 1171Z" stroke="#0078D4" stroke-width="1.33333" fill="#0078D4"/><path d="M1106.1 1171 1097.1 1171C1096.5 1171 1096.1 1171.4 1096.1 1172 1096.1 1172.6 1096.5 1173 1097.1 1173L1106.1 1173C1106.7 1173 1107.1 1172.6 1107.1 1172 1107.1 1171.4 1106.6 1171 1106.1 1171Z" stroke="#0078D4" stroke-width="1.33333" fill="#0078D4"/><path d="M1045.2 1151.5C1045.6 1151.9 1046.2 1151.9 1046.6 1151.5 1047 1151.1 1047 1150.5 1046.6 1150.1L1040.2 1143.7C1039.8 1143.3 1039.2 1143.3 1038.8 1143.6 1038.4 1144 1038.4 1144.6 1038.7 1145 1038.7 1145 1038.7 1145 1038.8 1145.1L1045.2 1151.5Z" stroke="#0078D4" stroke-width="1.33333" fill="#0078D4"/><path d="M1089 1192.5C1088.6 1192.1 1088 1192.1 1087.6 1192.5 1087.2 1192.9 1087.2 1193.5 1087.6 1193.9 1087.6 1193.9 1087.6 1193.9 1087.6 1193.9L1094 1200.3C1094.4 1200.7 1095 1200.7 1095.4 1200.3 1095.8 1199.9 1095.8 1199.3 1095.4 1198.9L1089 1192.5Z" stroke="#0078D4" stroke-width="1.33333" fill="#0078D4"/><path d="M1093.8 1143.8 1087.6 1150C1087.2 1150.4 1087.2 1151 1087.5 1151.4 1087.9 1151.8 1088.5 1151.8 1088.9 1151.5 1088.9 1151.5 1088.9 1151.5 1089 1151.4L1095.4 1145C1095.8 1144.6 1095.8 1144 1095.4 1143.6 1095 1143.2 1094.4 1143.2 1094 1143.6L1093.8 1143.8Z" stroke="#0078D4" stroke-width="1.33333" fill="#0078D4"/><path d="M1045.2 1192.5 1038.8 1198.9C1038.4 1199.3 1038.4 1199.9 1038.8 1200.3 1039.2 1200.7 1039.8 1200.7 1040.2 1200.3 1040.2 1200.3 1040.2 1200.3 1040.2 1200.3L1046.6 1193.9C1047 1193.5 1047 1192.9 1046.6 1192.5 1046.2 1192.1 1045.6 1192.1 1045.2 1192.5L1045.2 1192.5Z" stroke="#0078D4" stroke-width="1.33333" fill="#0078D4"/><path d="M1067.1 1219C1064.1 1219 1061.6 1216.7 1061.3 1213.7 1061.3 1213.1 1061.7 1212.7 1062.2 1212.6 1062.2 1212.6 1062.3 1212.6 1062.3 1212.6L1071.9 1212.6C1072.5 1212.6 1072.9 1213 1072.9 1213.6 1072.9 1213.6 1072.9 1213.7 1072.9 1213.7 1072.6 1216.7 1070.1 1219 1067.1 1219ZM1063.6 1214.6C1064.4 1216.5 1066.6 1217.5 1068.5 1216.8 1069.5 1216.4 1070.3 1215.6 1070.7 1214.6L1063.6 1214.6Z" stroke="#0078D4" stroke-width="1.33333" fill="#0078D4"/></g></svg>