<svg width="75" height="76" xmlns="http://www.w3.org/2000/svg" xmlns:xlink="http://www.w3.org/1999/xlink" xml:space="preserve" overflow="hidden"><g transform="translate(-853 -553)"><path d="M69.5922 49.7227C70.2227 47.1312 71.007 43.907 68.6258 38.668 68.1352 37.6047 67.0633 35.2305 65.9789 32.8234 64.9906 30.6313 63.9875 28.407 63.3961 27.1117 62.2807 24.5931 59.3348 23.4556 56.8162 24.5711 56.7959 24.5801 56.7756 24.5891 56.7555 24.5984 56.0316 24.8975 55.3942 25.3732 54.9016 25.982L54.8758 25.982C53.9903 24.7098 52.5475 23.9405 50.9977 23.9141L50.9977 23.9141C49.2811 23.843 47.6495 24.663 46.682 26.0828 44.8931 24.5688 42.2905 24.5073 40.432 25.9352 39.8134 26.3857 39.3277 26.9945 39.0258 27.6977 39.0245 27.7013 39.0205 27.7033 39.0168 27.702 39.0148 27.7013 39.0132 27.6997 39.0125 27.6977L33.3969 15.1617C32.9367 14.103 32.0869 13.2617 31.0234 12.8125 29.959 12.3462 28.7484 12.3436 27.682 12.8055 26.6222 13.2652 25.7801 14.1155 25.3305 15.1797 24.878 16.2156 24.863 17.3904 25.2891 18.4375 25.3158 18.5321 25.358 18.6216 25.4141 18.7023L38.5297 48.0523 37.6867 48.2398 28.4375 41.875C26.5713 40.5327 23.9909 40.8265 22.4742 42.5539 20.903 44.4111 21.1348 47.1903 22.992 48.7615 23.1003 48.8532 23.213 48.9395 23.3297 49.0203L38.218 59.2078C38.6628 59.5115 39.1616 59.7273 39.6875 59.8438L48.7227 61.9695 50.9523 66.8281 52.3758 66.1859 50.1883 61.3422C50.1618 61.2821 50.1273 61.2259 50.0859 61.175L49.7734 60.7844C49.6645 60.648 49.5129 60.552 49.343 60.5117L40 58.3086C39.6649 58.2267 39.3473 58.0852 39.0625 57.8906L24.2188 47.7305C23.5602 47.2745 23.1266 46.5602 23.0258 45.7656 22.9141 44.9716 23.151 44.168 23.6758 43.5617 24.6795 42.4634 26.3463 42.2898 27.5547 43.1578L37.0859 49.7203C37.2651 49.844 37.4876 49.8873 37.7 49.8398L39.8094 49.3711C40.2309 49.279 40.498 48.8627 40.4059 48.4411 40.3945 48.3891 40.3779 48.3384 40.3562 48.2898L26.8648 18.1203C26.8384 18.0302 26.7974 17.945 26.7437 17.868 26.2048 16.4341 26.8947 14.8307 28.3062 14.2359 28.9805 13.9468 29.7446 13.9511 30.4156 14.2477 31.1116 14.5466 31.6677 15.099 31.9711 15.793L38.6898 30.7969 38.6898 30.7969C38.851 31.2156 39.3213 31.4245 39.74 31.2632 40.0628 31.139 40.2716 30.8239 40.2602 30.4781 40.2605 30.4257 40.2555 30.3734 40.2453 30.3219 39.99 29.154 40.4202 27.9424 41.3547 27.1969 42.8302 26.0405 44.9621 26.2902 46.1305 27.7563 46.1495 27.7816 46.1703 27.8053 46.193 27.8273 46.4418 28.0969 46.8305 28.1859 47.1719 28.0516 47.3715 27.9605 47.5292 27.7972 47.6133 27.5945L47.6133 27.5945C48.1852 26.2638 49.5167 25.422 50.9641 25.4758 51.9865 25.493 52.942 25.9873 53.5469 26.8117 53.5676 26.8391 53.59 26.8653 53.6141 26.8898 53.819 27.104 53.9733 27.3613 54.0656 27.643 54.1052 27.7429 54.1651 27.8336 54.2414 27.9094 54.4938 28.1724 54.8799 28.2575 55.2195 28.125 55.4078 28.0381 55.5587 27.8868 55.6453 27.6984L55.6453 27.6984C55.9979 26.9448 56.6176 26.3487 57.3844 26.0258 59.0975 25.2248 61.1356 25.9641 61.9366 27.6773 61.9481 27.7019 61.9594 27.7266 61.9703 27.7516 62.5648 29.0523 63.5664 31.2734 64.5539 33.4633 65.643 35.8781 66.7148 38.2547 67.2047 39.3164 69.3609 44.0625 68.6773 46.875 68.0742 49.3531 67.6141 51.2453 67.1789 53.0328 68.1453 55.1883L69.6297 58.3914 71.0477 57.7336 69.5633 54.5398C68.8281 52.882 69.1633 51.4844 69.5922 49.7227Z" stroke="#0078D4" stroke-width="1.30208" fill="#0078D4" transform="matrix(1 0 0 1.01333 853 553)"/><path d="M21.1648 18.5563 22.4312 17.6406 16.7914 9.84375 8.99844 15.4828 9.91406 16.7492 15.532 12.6867C15.5348 12.684 15.5392 12.6839 15.542 12.6866 15.5438 12.6885 15.5445 12.6913 15.5437 12.6937L10.8289 42.1031C10.827 42.107 10.8223 42.1086 10.8184 42.1067 10.8169 42.106 10.8156 42.1047 10.8148 42.1031L6.75234 36.4859 5.48359 37.4047 11.1234 45.1984 18.9164 39.5594 18.0008 38.293 12.3836 42.3555C12.3802 42.358 12.3752 42.3574 12.3727 42.354 12.3714 42.3524 12.3709 42.3504 12.3711 42.3484L17.0867 12.9398C17.0886 12.9359 17.0933 12.9344 17.0972 12.9362 17.0988 12.937 17.1 12.9383 17.1008 12.9398Z" stroke="#0078D4" stroke-width="1.30208" fill="#0078D4" transform="matrix(1 0 0 1.01333 853 553)"/></g></svg>