<svg width="76" height="76" xmlns="http://www.w3.org/2000/svg" xmlns:xlink="http://www.w3.org/1999/xlink" xml:space="preserve" overflow="hidden"><g transform="translate(-612 -159)"><path d="M641.292 201.031 660.292 201.031C661.603 201.031 662.667 202.094 662.667 203.406 662.667 204.718 661.603 205.781 660.292 205.781L646.042 205.781C645.604 205.781 645.25 206.136 645.25 206.573 645.25 207.01 645.604 207.365 646.042 207.365L660.292 207.365C662.478 207.365 664.25 205.592 664.25 203.406 664.25 201.22 662.478 199.448 660.292 199.448L641.292 199.448C639.864 199.46 638.463 199.842 637.227 200.556L614.821 211.329C614.419 211.501 614.232 211.966 614.403 212.368 614.575 212.77 615.04 212.957 615.442 212.786 615.464 212.776 615.486 212.766 615.507 212.754L637.961 201.956C638.971 201.36 640.119 201.041 641.292 201.031Z" stroke="#0078D4" stroke-width="1.31945" fill="#0078D4"/><path d="M681.667 193.034C680.938 193.018 680.222 193.22 679.608 193.613L666.071 201.372C665.691 201.59 665.56 202.075 665.779 202.455 665.997 202.835 666.483 202.966 666.862 202.747L680.446 194.959C680.809 194.724 681.234 194.605 681.667 194.617 682.978 194.617 684.042 195.68 684.042 196.992 684.01 197.694 683.711 198.358 683.206 198.846L661.493 214.72C661.079 215.033 660.574 215.205 660.054 215.208L645.25 215.208C637.153 215.208 630.571 217.684 625.689 222.571 625.352 222.85 625.306 223.349 625.585 223.686 625.864 224.022 626.363 224.069 626.699 223.79 626.737 223.758 626.773 223.723 626.804 223.685 631.381 219.11 637.586 216.792 645.25 216.792L660.054 216.792C660.907 216.787 661.736 216.509 662.42 216L684.191 200.087 684.285 200.008C685.115 199.222 685.597 198.136 685.625 196.993 685.623 194.808 683.852 193.036 681.667 193.034Z" stroke="#0078D4" stroke-width="1.31945" fill="#0078D4"/><path d="M647.053 194.004C647.54 194.004 647.988 193.996 648.414 193.99L648.478 194.069C649.337 194.945 649.873 196.086 650 197.306 650.007 197.336 650.017 197.365 650.029 197.393 650.039 197.437 650.053 197.479 650.07 197.52 650.094 197.57 650.123 197.618 650.157 197.662 650.18 197.696 650.207 197.727 650.236 197.756 650.277 197.796 650.324 197.83 650.374 197.859 650.406 197.882 650.439 197.902 650.474 197.919 650.535 197.943 650.598 197.959 650.663 197.967 650.691 197.976 650.719 197.983 650.748 197.989L650.788 197.989C650.823 197.989 650.859 197.986 650.895 197.982 650.924 197.973 650.954 197.963 650.982 197.951 651.037 197.939 651.09 197.92 651.141 197.896 651.182 197.873 651.221 197.847 651.258 197.817 651.339 197.76 651.406 197.685 651.456 197.599 651.483 197.556 651.506 197.509 651.524 197.461 651.54 197.414 651.552 197.366 651.559 197.317 651.568 197.289 651.575 197.26 651.58 197.231 651.632 194.222 653.144 191.425 655.635 189.735 656.574 189.78 657.726 189.848 658.991 189.848 662.518 189.848 666.918 189.314 669.995 186.229 675.22 180.845 673.953 171.029 673.953 171.029 673.077 170.932 672.196 170.887 671.315 170.893 668.032 170.893 662.431 171.468 658.912 174.987 655.27 178.721 654.782 184.836 654.771 188.405 652.769 189.788 651.272 191.787 650.508 194.098 650.258 193.732 649.987 193.381 649.697 193.046 649.606 192.937 649.513 192.826 649.421 192.712 649.616 189.789 649.908 185.033 646.719 181.399 644.178 178.502 639.948 177.96 637.14 177.96 636.187 177.954 635.234 178.019 634.29 178.154 634.29 178.154 633.216 186.478 637.536 190.583 640.804 193.698 644.354 194.004 647.053 194.004ZM660.026 176.112C663.184 172.954 668.451 172.482 671.309 172.482 671.745 172.482 672.137 172.493 672.473 172.508 672.596 175.179 672.45 181.426 668.869 185.115 666.72 187.268 663.579 188.27 658.983 188.27 658.487 188.27 658.012 188.259 657.558 188.243 660.378 184.953 662.679 182.86 664.731 181.724 665.114 181.512 665.252 181.03 665.04 180.648 664.829 180.265 664.347 180.127 663.964 180.339 661.755 181.562 659.327 183.755 656.394 187.168 656.585 182.123 657.797 178.396 660.026 176.111ZM635.768 179.595C636.156 179.568 636.62 179.549 637.135 179.549 639.317 179.549 643.31 179.925 645.526 182.449 647.901 185.158 648.039 188.66 647.911 191.378 646.353 188.843 644.302 186.647 641.88 184.919 641.524 184.665 641.03 184.748 640.776 185.104 640.521 185.46 640.604 185.954 640.96 186.208 643.274 187.866 645.225 189.979 646.693 192.418 644.049 192.385 641.26 191.943 638.624 189.44 635.849 186.805 635.68 181.885 635.768 179.594Z" stroke="#0078D4" stroke-width="1.31945" fill="#0078D4"/></g></svg>