<svg width="76" height="76" xmlns="http://www.w3.org/2000/svg" xmlns:xlink="http://www.w3.org/1999/xlink" xml:space="preserve" overflow="hidden"><g transform="translate(-583 -553)"><path d="M612.292 595.031 631.292 595.031C632.603 595.031 633.667 596.094 633.667 597.406 633.667 598.718 632.603 599.781 631.292 599.781L617.042 599.781C616.604 599.781 616.25 600.136 616.25 600.573 616.25 601.01 616.604 601.365 617.042 601.365L631.292 601.365C633.478 601.365 635.25 599.592 635.25 597.406 635.25 595.22 633.478 593.448 631.292 593.448L612.292 593.448C610.864 593.46 609.463 593.842 608.227 594.556L585.821 605.329C585.419 605.501 585.232 605.966 585.403 606.368 585.575 606.77 586.04 606.957 586.442 606.786 586.464 606.776 586.486 606.766 586.507 606.754L608.961 595.956C609.971 595.36 611.119 595.041 612.292 595.031Z" stroke="#0078D4" stroke-width="1.31944" fill="#0078D4"/><path d="M652.667 587.034C651.938 587.018 651.222 587.22 650.608 587.613L637.071 595.372C636.691 595.59 636.56 596.075 636.779 596.455 636.997 596.835 637.483 596.966 637.862 596.747L651.446 588.959C651.809 588.724 652.234 588.605 652.667 588.617 653.978 588.617 655.042 589.68 655.042 590.992 655.01 591.694 654.711 592.358 654.206 592.846L632.493 608.72C632.079 609.033 631.574 609.205 631.054 609.208L616.25 609.208C608.153 609.208 601.571 611.684 596.689 616.571 596.352 616.85 596.306 617.349 596.585 617.686 596.864 618.022 597.363 618.069 597.699 617.79 597.737 617.758 597.773 617.723 597.804 617.685 602.381 613.11 608.586 610.792 616.25 610.792L631.054 610.792C631.907 610.787 632.736 610.509 633.42 610L655.191 594.088 655.285 594.008C656.115 593.222 656.597 592.136 656.625 590.993 656.623 588.808 654.852 587.036 652.667 587.034Z" stroke="#0078D4" stroke-width="1.31944" fill="#0078D4"/><path d="M618.053 588.004C618.54 588.004 618.988 587.996 619.414 587.99L619.478 588.069C620.337 588.945 620.873 590.086 621 591.306 621.007 591.336 621.017 591.365 621.029 591.393 621.039 591.437 621.053 591.479 621.07 591.52 621.094 591.57 621.123 591.618 621.157 591.662 621.18 591.696 621.207 591.727 621.236 591.756 621.277 591.796 621.324 591.83 621.374 591.859 621.406 591.882 621.439 591.902 621.474 591.919 621.535 591.943 621.598 591.959 621.663 591.967 621.691 591.976 621.719 591.983 621.748 591.989L621.788 591.989C621.823 591.989 621.859 591.986 621.895 591.982 621.924 591.973 621.954 591.963 621.982 591.951 622.037 591.939 622.09 591.92 622.141 591.896 622.182 591.873 622.221 591.847 622.258 591.817 622.339 591.76 622.406 591.685 622.456 591.599 622.483 591.556 622.506 591.509 622.524 591.461 622.54 591.414 622.552 591.366 622.559 591.317 622.568 591.289 622.575 591.26 622.58 591.231 622.632 588.222 624.144 585.425 626.635 583.735 627.574 583.78 628.726 583.848 629.991 583.848 633.518 583.848 637.918 583.314 640.995 580.229 646.22 574.845 644.953 565.029 644.953 565.029 644.077 564.932 643.196 564.887 642.315 564.893 639.032 564.893 633.431 565.468 629.912 568.987 626.27 572.721 625.782 578.836 625.771 582.405 623.769 583.788 622.272 585.787 621.508 588.098 621.258 587.732 620.987 587.381 620.697 587.046 620.606 586.937 620.513 586.826 620.421 586.712 620.616 583.789 620.908 579.033 617.719 575.399 615.178 572.502 610.948 571.96 608.14 571.96 607.187 571.954 606.234 572.019 605.29 572.154 605.29 572.154 604.216 580.478 608.536 584.583 611.804 587.698 615.354 588.004 618.053 588.004ZM631.026 570.112C634.184 566.954 639.451 566.482 642.309 566.482 642.745 566.482 643.137 566.493 643.473 566.508 643.596 569.179 643.45 575.426 639.869 579.115 637.72 581.268 634.579 582.27 629.983 582.27 629.487 582.27 629.012 582.259 628.558 582.243 631.378 578.953 633.679 576.86 635.731 575.724 636.114 575.512 636.252 575.03 636.04 574.648 635.829 574.265 635.347 574.127 634.964 574.339 632.755 575.562 630.327 577.755 627.394 581.168 627.585 576.123 628.797 572.396 631.026 570.111ZM606.768 573.595C607.156 573.568 607.62 573.549 608.135 573.549 610.317 573.549 614.31 573.925 616.526 576.449 618.901 579.158 619.039 582.66 618.911 585.378 617.353 582.843 615.302 580.647 612.88 578.919 612.524 578.665 612.03 578.748 611.776 579.104 611.521 579.46 611.604 579.954 611.96 580.208 614.274 581.866 616.225 583.979 617.693 586.418 615.049 586.385 612.26 585.943 609.624 583.44 606.849 580.805 606.68 575.885 606.768 573.594Z" stroke="#0078D4" stroke-width="1.31944" fill="#0078D4"/></g></svg>