<svg width="113" height="113" xmlns="http://www.w3.org/2000/svg" xmlns:xlink="http://www.w3.org/1999/xlink" xml:space="preserve" overflow="hidden"><g transform="translate(-737 -124)"><path d="M754.656 155.781C756.797 155.773 758.662 154.322 759.197 152.25L765.25 152.25C767.2 152.25 768.781 153.831 768.781 155.781L768.781 169.249C769.304 169.089 769.834 168.95 770.373 168.841 770.589 168.164 770.844 167.501 771.135 166.853L771.135 155.781C771.132 152.532 768.499 149.9 765.25 149.896L759.196 149.896C758.542 147.384 755.975 145.878 753.463 146.533 750.951 147.188 749.445 149.755 750.1 152.266 750.64 154.34 752.514 155.785 754.656 155.781Z" stroke="#FFFFFF" stroke-width="0.295453" fill="#FFFFFF"/><path d="M758.622 192.271 749.948 192.271C747.998 192.271 746.417 190.69 746.417 188.74L746.417 181.51C748.934 180.86 750.449 178.292 749.798 175.774 749.148 173.256 746.58 171.742 744.062 172.392 741.545 173.042 740.031 175.61 740.681 178.128 741.109 179.787 742.404 181.082 744.062 181.51L744.062 188.74C744.066 191.988 746.699 194.621 749.948 194.625L760.025 194.625C759.493 193.88 759.024 193.093 758.622 192.271Z" stroke="#FFFFFF" stroke-width="0.295453" fill="#FFFFFF"/><path d="M789.969 141.489 789.969 155.865C790.76 155.923 791.546 156.031 792.323 156.189L792.323 141.489C794.841 140.839 796.355 138.271 795.705 135.753 795.055 133.235 792.487 131.721 789.969 132.371 787.451 133.022 785.937 135.59 786.587 138.107 787.015 139.766 788.31 141.061 789.969 141.489Z" stroke="#FFFFFF" stroke-width="0.295453" fill="#FFFFFF"/><path d="M812.333 162.844C812.333 160.893 813.914 159.312 815.865 159.312L822.927 159.312C826.176 159.309 828.809 156.676 828.812 153.427L828.812 150.906C831.33 150.256 832.844 147.688 832.194 145.17 831.544 142.652 828.976 141.138 826.458 141.788 823.941 142.438 822.426 145.006 823.077 147.524 823.505 149.183 824.8 150.478 826.458 150.906L826.458 153.427C826.458 155.377 824.877 156.958 822.927 156.958L815.865 156.958C812.616 156.962 809.983 159.595 809.979 162.844L809.979 163.406C810.794 163.745 811.581 164.147 812.333 164.609Z" stroke="#FFFFFF" stroke-width="0.295453" fill="#FFFFFF"/><path d="M798.208 218.334 798.208 201.688 795.854 201.688 795.854 218.334C793.336 218.984 791.822 221.552 792.472 224.07 793.122 226.588 795.691 228.102 798.208 227.452 800.726 226.801 802.24 224.233 801.59 221.716 801.162 220.057 799.867 218.762 798.208 218.334Z" stroke="#FFFFFF" stroke-width="0.295453" fill="#FFFFFF"/><path d="M778.198 202.865C778.198 204.815 776.617 206.396 774.667 206.396L767.604 206.396C764.355 206.4 761.723 209.032 761.719 212.281L761.719 214.803C759.201 215.453 757.687 218.021 758.337 220.538 758.987 223.056 761.555 224.57 764.073 223.92 766.591 223.27 768.105 220.702 767.455 218.184 767.026 216.526 765.731 215.231 764.073 214.803L764.073 212.281C764.073 210.331 765.654 208.75 767.604 208.75L774.667 208.75C777.916 208.746 780.548 206.113 780.552 202.865L780.552 201.688 778.198 201.688Z" stroke="#FFFFFF" stroke-width="0.295453" fill="#FFFFFF"/><path d="M841.76 175.792C839.62 175.8 837.754 177.25 837.219 179.323L827.223 179.323C827.72 180.067 828.147 180.855 828.498 181.677L837.218 181.677C837.873 184.189 840.44 185.695 842.952 185.04 845.463 184.385 846.969 181.818 846.314 179.306 845.774 177.234 843.902 175.789 841.76 175.792Z" stroke="#FFFFFF" stroke-width="0.295453" fill="#FFFFFF"/><path d="M831.167 207.573C829.026 207.581 827.161 209.032 826.625 211.104L820.573 211.104C818.623 211.104 817.042 209.523 817.042 207.573L817.042 201.542C816.394 201.634 815.742 201.683 815.088 201.688L814.688 201.688 814.688 207.573C814.691 210.822 817.324 213.454 820.573 213.458L826.625 213.458C827.28 215.97 829.847 217.476 832.359 216.821 834.871 216.167 836.376 213.6 835.722 211.088 835.182 209.015 833.308 207.57 831.167 207.573Z" stroke="#FFFFFF" stroke-width="0.295453" fill="#FFFFFF"/><path d="M763.141 177.252C760.192 181.114 759.664 186.305 761.774 190.681 763.887 195.068 768.251 197.93 773.118 198.119L773.193 198.119 776.655 198.154 815.087 198.154C821.107 198.217 826.038 193.388 826.101 187.368 826.159 181.812 822.03 177.102 816.514 176.432 815.904 173.032 813.969 170.012 811.135 168.037 808.908 166.479 806.254 165.646 803.536 165.652 802.693 165.651 801.853 165.73 801.025 165.888 798.147 161.751 793.419 159.292 788.38 159.312 787.178 159.313 785.979 159.453 784.81 159.729 778.812 161.114 774.239 165.977 773.227 172.049 769.256 172.19 765.557 174.098 763.141 177.252ZM773.68 174.394C774.246 174.395 774.811 174.439 775.369 174.526 775.375 174.528 775.381 174.524 775.382 174.518 775.382 174.517 775.382 174.517 775.382 174.516 775.382 174.452 775.382 174.23 775.382 174.146 775.57 168.313 779.66 163.336 785.346 162.022 791.138 160.646 797.127 163.356 799.917 168.614 799.922 168.617 799.927 168.617 799.932 168.614 803.243 167.463 806.905 167.966 809.783 169.967 812.588 171.913 814.291 175.086 814.363 178.499 814.363 178.538 814.363 178.678 814.363 178.72 814.363 178.727 814.363 178.731 814.376 178.73 814.61 178.702 814.846 178.691 815.082 178.697 819.805 178.641 823.679 182.425 823.734 187.149 823.79 191.872 820.006 195.745 815.283 195.801 815.216 195.802 815.149 195.802 815.082 195.801L776.678 195.801 773.218 195.766C769.222 195.608 765.638 193.261 763.896 189.661 762.176 186.08 762.608 181.837 765.015 178.676 767.076 175.973 770.281 174.389 773.68 174.394Z" stroke="#FFFFFF" stroke-width="0.295453" fill="#FFFFFF"/></g></svg>