<svg width="75" height="76" xmlns="http://www.w3.org/2000/svg" xmlns:xlink="http://www.w3.org/1999/xlink" xml:space="preserve" overflow="hidden"><g transform="translate(-314 -553)"><path d="M53.9258 34.3867 53.9258 25.0242C53.9258 15.9521 46.5713 8.59766 37.4992 8.59766 28.4271 8.59766 21.0727 15.9521 21.0727 25.0242L21.0727 34.3859 15.6227 34.7766 15.6227 64.4711 37.4977 66.0336 59.3727 64.4711 59.3727 34.775ZM22.6352 25.0242C22.6352 16.815 29.29 10.1602 37.4992 10.1602 45.7084 10.1602 52.3633 16.815 52.3633 25.0242L52.3633 34.282 50 34.1242 50 25.0047C50 18.1011 44.4036 12.5047 37.5 12.5047 30.5964 12.5047 25 18.1011 25 25.0047L25 34.1242 22.6367 34.2805ZM48.4375 34.0148 37.5 33.2125 26.5625 34.0148 26.5625 25.0047C26.5625 18.9641 31.4594 14.0672 37.5 14.0672 43.5406 14.0672 48.4375 18.9641 48.4375 25.0047ZM57.8125 63.0164 37.5 64.468 17.1875 63.0164 17.1875 36.2305 21.1984 35.9437 25.8961 35.6313 37.5 34.7789 49.1148 35.6313 53.7953 35.9437 57.8125 36.2305Z" stroke="#0078D4" stroke-width="1.30208" fill="#0078D4" transform="matrix(1 0 0 1.01333 314 553)"/><path d="M37.5 43.3719C34.4668 43.3843 32.018 45.8533 32.0304 48.8866 32.0391 50.9948 33.2537 52.912 35.1562 53.8203L35.1562 58.2195 39.8438 58.2195 39.8438 53.8016C41.7325 52.8647 42.9388 50.9503 42.9688 48.8422 42.9657 45.8229 40.5193 43.3758 37.5 43.3719ZM38.7773 52.5688 38.2812 52.7633 38.2812 56.657 36.7188 56.657 36.7188 52.7406 36.1937 52.5586C34.149 51.8454 33.0696 49.6096 33.7829 47.5648 34.4961 45.5201 36.7319 44.4407 38.7766 45.154 40.3464 45.7016 41.4003 47.1796 41.4062 48.8422 41.372 50.5045 40.3313 51.9794 38.7766 52.5688Z" stroke="#0078D4" stroke-width="1.30208" fill="#0078D4" transform="matrix(1 0 0 1.01333 314 553)"/></g></svg>