<svg width="94" height="94" xmlns="http://www.w3.org/2000/svg" xmlns:xlink="http://www.w3.org/1999/xlink" xml:space="preserve" overflow="hidden"><g transform="translate(-867 -965)"><path d="M949.256 978.707 878.756 978.707C876.595 978.713 874.845 980.463 874.839 982.624L874.839 1029.62C874.845 1031.78 876.595 1033.53 878.756 1033.54L906.172 1033.54 906.172 1039.42 896.381 1039.42 896.381 1045.29 931.631 1045.29 931.631 1039.42 921.839 1039.42 921.839 1033.54 949.256 1033.54C951.416 1033.53 953.166 1031.78 953.172 1029.62L953.172 982.624C953.166 980.463 951.416 978.714 949.256 978.707ZM906.662 1027.67 880.714 1027.67 880.714 1007.59 906.662 1007.59ZM906.662 1004.66 880.714 1004.66 880.714 984.582 906.662 984.582ZM947.297 1027.67 909.599 1027.67 909.599 984.582 947.297 984.582Z" stroke="#0078D4" stroke-width="0.652778" fill="#0078D4"/><path d="M938.485 1010.53C938.507 1009.67 938.103 1008.87 937.408 1008.37 935.858 1007.16 934.06 1006.3 932.142 1005.86 930.704 1005.42 929.215 1005.18 927.714 1005.14 926.209 1005.14 924.715 1005.39 923.286 1005.86 921.395 1006.38 919.612 1007.23 918.02 1008.37 917.345 1008.88 916.947 1009.68 916.943 1010.53L916.943 1015.92 938.485 1015.92Z" stroke="#0078D4" stroke-width="0.652778" fill="#0078D4"/><path d="M933.099 998.313C933.099 1001.29 930.688 1003.7 927.714 1003.7 924.74 1003.7 922.329 1001.29 922.329 998.313 922.329 995.339 924.74 992.928 927.714 992.928 930.688 992.928 933.099 995.339 933.099 998.313Z" stroke="#0078D4" stroke-width="0.652778" fill="#0078D4"/><path d="M900.297 998.352C900.311 997.827 900.063 997.33 899.634 997.025 898.681 996.279 897.574 995.75 896.394 995.478 895.509 995.212 894.593 995.063 893.669 995.036 892.743 995.039 891.823 995.188 890.944 995.478 889.78 995.797 888.683 996.321 887.704 997.025 887.288 997.34 887.043 997.831 887.041 998.352L887.041 1001.67 900.297 1001.67Z" stroke="#0078D4" stroke-width="0.652778" fill="#0078D4"/><path d="M896.984 990.836C896.984 992.666 895.5 994.151 893.669 994.151 891.838 994.151 890.354 992.666 890.354 990.836 890.354 989.005 891.838 987.521 893.669 987.521 895.5 987.521 896.984 989.005 896.984 990.836Z" stroke="#0078D4" stroke-width="0.652778" fill="#0078D4"/><path d="M900.297 1021.41C900.311 1020.89 900.063 1020.39 899.634 1020.09 898.681 1019.34 897.574 1018.81 896.394 1018.54 895.509 1018.27 894.593 1018.12 893.669 1018.1 892.743 1018.1 891.823 1018.25 890.944 1018.54 889.78 1018.86 888.683 1019.38 887.704 1020.09 887.288 1020.4 887.043 1020.89 887.041 1021.41L887.041 1024.73 900.297 1024.73Z" stroke="#0078D4" stroke-width="0.652778" fill="#0078D4"/><path d="M896.984 1013.9C896.984 1015.73 895.5 1017.21 893.669 1017.21 891.838 1017.21 890.354 1015.73 890.354 1013.9 890.354 1012.07 891.838 1010.58 893.669 1010.58 895.5 1010.58 896.984 1012.07 896.984 1013.9Z" stroke="#0078D4" stroke-width="0.652778" fill="#0078D4"/></g></svg>