<svg width="75" height="75" xmlns="http://www.w3.org/2000/svg" xmlns:xlink="http://www.w3.org/1999/xlink" xml:space="preserve" overflow="hidden"><g transform="translate(-756 -1119)"><path d="M820.039 1182.28 768.5 1182.28 768.5 1130.72 766.938 1130.72 766.938 1183.84 820.039 1183.84 820.039 1182.28Z" stroke="#0078D4" stroke-width="1.33333" fill="#0078D4"/><path d="M820.062 1130.72 807.562 1130.72 807.562 1177.59 820.062 1177.59ZM818.5 1176.03 809.125 1176.03 809.125 1132.28 818.5 1132.28Z" stroke="#0078D4" stroke-width="1.33333" fill="#0078D4"/><path d="M790.375 1177.59 802.875 1177.59 802.875 1147.91 790.375 1147.91ZM791.938 1149.47 801.312 1149.47 801.312 1176.03 791.938 1176.03Z" stroke="#0078D4" stroke-width="1.33333" fill="#0078D4"/><path d="M773.188 1177.59 785.688 1177.59 785.688 1161.97 773.188 1161.97ZM774.75 1163.53 784.125 1163.53 784.125 1176.03 774.75 1176.03Z" stroke="#0078D4" stroke-width="1.33333" fill="#0078D4"/><path d="M773.74 1156.27 796.614 1133.4C796.617 1133.39 796.622 1133.39 796.625 1133.4 796.626 1133.4 796.627 1133.4 796.627 1133.4L796.627 1140.88 798.19 1140.88 798.19 1130.72 788.055 1130.72 788.055 1132.28 795.502 1132.28C795.506 1132.28 795.509 1132.28 795.509 1132.29 795.509 1132.29 795.508 1132.29 795.507 1132.29L772.635 1155.17Z" stroke="#0078D4" stroke-width="1.33333" fill="#0078D4"/></g></svg>